<?xml version="1.0" encoding="utf-8"?>
<svg xmlns="http://www.w3.org/2000/svg" viewBox="0 0 500 500" width="500px" height="500px"><path transform="translate(500 0) scale(-1 1)" d="M 187.546 42.099 C 189.136 43.319 190.696 44.569 192.236 45.849 C 192.926 46.389 193.606 46.919 194.316 47.469 C 199.256 51.519 203.106 56.229 207.076 61.209 C 210.876 65.859 215.096 69.899 219.666 73.779 C 225.056 78.479 230.086 83.549 235.136 88.619 C 236.796 90.279 238.456 91.939 240.126 93.599 C 245.706 99.179 251.136 104.829 256.236 110.849 C 257.186 111.919 258.136 112.989 259.086 114.059 C 267.136 123.199 274.276 132.865 281.236 142.849 C 281.676 143.473 282.116 144.098 282.576 144.741 C 290.086 155.431 296.416 166.758 302.746 178.176 C 304.036 180.483 305.326 182.78 306.646 185.071 C 312.676 195.628 318.306 206.39 323.876 217.201 C 324.706 218.814 325.536 220.426 326.376 222.035 C 347.486 262.668 363.776 307.498 375.646 351.698 C 377.136 357.116 378.676 362.501 380.706 367.739 C 382.706 372.922 384.156 378.261 385.676 383.599 C 388.026 391.752 390.446 399.834 393.236 407.849 C 393.696 409.244 394.156 410.64 394.616 412.036 C 395.156 413.641 395.696 415.245 396.236 416.849 C 396.456 417.491 396.666 418.133 396.886 418.794 C 397.636 421.045 398.406 423.291 399.176 425.536 C 399.536 426.624 399.536 426.624 399.906 427.734 C 401.106 431.215 402.336 434.178 404.486 437.181 C 405.066 438.061 405.322 438.728 405.674 439.673 C 406.068 440.655 406.289 441.441 405.478 442.034 C 404.159 442.986 401.406 442.041 399.496 439.806 C 395.056 432.715 391.896 425.6 389.116 417.724 C 388.466 415.937 388.466 415.937 387.806 414.113 C 385.326 407.187 383.036 400.242 381.076 393.155 C 379.066 386.005 376.576 379.032 374.086 372.039 C 372.596 367.812 371.136 363.594 369.866 359.29 C 367.776 352.185 365.396 345.176 363.046 338.153 C 362.236 335.723 361.426 333.292 360.616 330.86 C 360.096 329.291 359.576 327.722 359.046 326.153 C 358.816 325.439 358.576 324.724 358.326 323.987 C 356.736 319.231 355.016 314.537 353.236 309.849 C 352.756 308.574 352.286 307.3 351.806 306.025 C 350.536 302.634 349.266 299.245 347.996 295.858 C 347.296 294.009 346.606 292.159 345.916 290.31 C 343.646 284.307 341.186 278.461 338.476 272.642 C 337.166 269.682 336.006 266.692 334.866 263.661 C 323.526 233.796 307.606 205.667 291.396 178.224 C 288.636 173.557 285.986 168.842 283.366 164.099 C 279.656 157.439 275.596 151.099 271.236 144.849 C 270.866 144.305 270.496 143.762 270.106 143.202 C 261.436 130.535 251.736 119.129 240.756 108.409 C 237.056 104.769 233.906 100.959 230.806 96.809 C 228.706 94.189 226.306 92.139 223.736 89.989 C 213.586 81.299 203.466 72.029 194.796 61.849 C 187.166 53.089 179.966 46.879 168.066 45.469 C 153.626 44.919 141.646 50.939 130.986 60.289 C 122.066 68.659 115.416 77.629 111.946 89.559 C 111.236 91.849 111.236 91.849 110.466 93.739 C 107.686 100.779 107.696 107.669 107.736 115.159 C 107.736 115.839 107.736 116.519 107.736 117.209 C 107.936 147.289 116.496 177.526 126.496 205.733 C 127.346 208.175 128.136 210.633 128.936 213.091 C 131.936 222.108 135.366 230.965 138.736 239.849 C 140.056 243.348 141.386 246.848 142.706 250.349 C 143.016 251.187 143.336 252.026 143.666 252.89 C 145.346 257.368 146.926 261.857 148.396 266.411 C 149.926 271.124 151.836 275.545 153.936 280.029 C 178.216 332.557 191.846 389.106 202.976 445.608 C 203.136 446.373 203.286 447.138 203.436 447.927 C 203.566 448.591 203.706 449.255 203.836 449.94 C 204.116 451.275 204.436 452.603 204.776 453.923 C 205.386 456.465 205.406 458.864 205.426 461.474 C 205.436 462.435 205.535 463.781 205.466 464.388 C 205.236 466.849 204.49 467.488 203.639 468.129 C 202.795 468.734 201.602 468.89 200.755 468.274 C 200.168 467.598 199.896 467.145 199.716 466.267 C 194.046 437.967 188.086 409.641 180.236 381.849 C 179.966 380.881 179.696 379.913 179.416 378.916 C 175.626 365.582 171.506 352.386 166.986 339.286 C 166.576 338.092 166.166 336.898 165.736 335.668 C 163.406 328.986 160.916 322.4 158.236 315.849 C 157.296 313.512 156.366 311.175 155.436 308.837 C 154.926 307.571 154.416 306.304 153.916 305.038 C 149.356 293.642 144.796 282.245 140.236 270.849 C 139.866 269.931 139.496 269.013 139.126 268.067 C 138.516 266.547 137.906 265.026 137.296 263.505 C 136.466 261.418 135.616 259.336 134.766 257.255 C 132.216 251.011 129.736 244.812 127.976 238.29 C 127.126 235.495 126.086 232.788 125.056 230.056 C 117.656 210.211 110.666 190.052 105.846 169.418 C 105.206 166.723 104.526 164.04 103.846 161.357 C 100.056 146.354 98.086 132.094 97.986 116.599 C 97.976 115.519 97.966 114.439 97.956 113.329 C 98.046 91.779 105.166 72.029 120.176 56.409 C 137.456 40.139 165.376 26.939 187.546 42.099 Z" fill="#AEADAD" style="stroke-width: 1;"/></svg>
